# xmcd
#
# Track frame offsets:
#	150
#	31510
#	45435
#	67747
#	89132
#	106247
#	134275
#	151390
#	182867
#	203410
#	221805
#	241262
#	256457
#	279940
#
# Disc length: 4107 seconds
#
# Revision: 2
# Processed by: cddbd v1.5.2PL0 Copyright (c) Steve Scherf et al.
# Submitted via: EasyCDDAExtractor 15.3.0.1
#
DISCID=b910090e
DTITLE=Mink DeVille - Desperate Days
DYEAR=1900
DGENRE=Blues
TTITLE0=On Broadway
TTITLE1=This Must Be The Night
TTITLE2=Cadillac Walk
TTITLE3=Love and Emotion
TTITLE4=Desperate Days
TTITLE5=Mixed Up, Shook Up Girl
TTITLE6=Ruby baby
TTITLE7=Savoir Fair
TTITLE8=Maybe Tomorrow
TTITLE9=Can't Do Without It
TTITLE10=Just To walk That Little Girl Home
TTITLE11=Love Me Like You Did Before
TTITLE12=Spanish Stroll
TTITLE13=Stand By Me
EXTD=The Swingin' Pig Records
EXTT0=
EXTT1=
EXTT2=
EXTT3=
EXTT4=
EXTT5=
EXTT6=
EXTT7=
EXTT8=
EXTT9=
EXTT10=
EXTT11=
EXTT12=
EXTT13=
PLAYORDER=
